<?xml version="1.0" encoding="UTF-8"?>
<svg width="700pt" height="700pt" version="1.1" viewBox="0 0 700 700" xmlns="http://www.w3.org/2000/svg" xmlns:xlink="http://www.w3.org/1999/xlink">
 <defs>
  <symbol id="o" overflow="visible">
   <path d="m29.312-1.75c-1.5117 0.78125-3.0898 1.3711-4.7344 1.7656-1.6367 0.40625-3.3398 0.60938-5.1094 0.60938-5.3125 0-9.5273-1.4844-12.641-4.4531-3.1055-2.9688-4.6562-7-4.6562-12.094s1.5508-9.125 4.6562-12.094c3.1133-2.9688 7.3281-4.4531 12.641-4.4531 1.7695 0 3.4727 0.19922 5.1094 0.59375 1.6445 0.39844 3.2227 0.99219 4.7344 1.7812v6.5938c-1.5312-1.0391-3.0391-1.8008-4.5156-2.2812-1.4805-0.48828-3.0391-0.73438-4.6719-0.73438-2.9375 0-5.2461 0.94531-6.9219 2.8281-1.6797 1.875-2.5156 4.4648-2.5156 7.7656 0 3.293 0.83594 5.8828 2.5156 7.7656 1.6758 1.875 3.9844 2.8125 6.9219 2.8125 1.6328 0 3.1914-0.23828 4.6719-0.71875 1.4766-0.48828 2.9844-1.2539 4.5156-2.2969z"/>
  </symbol>
  <symbol id="h" overflow="visible">
   <path d="m21.453-17.406c-0.67969-0.3125-1.3516-0.53906-2.0156-0.6875-0.65625-0.15625-1.3203-0.23438-1.9844-0.23438-1.9688 0-3.4844 0.63281-4.5469 1.8906-1.0547 1.2617-1.5781 3.0703-1.5781 5.4219v11.016h-7.6562v-23.922h7.6562v3.9219c0.97656-1.5625 2.1016-2.7031 3.375-3.4219 1.2812-0.71875 2.8125-1.0781 4.5938-1.0781 0.25 0 0.52344 0.011719 0.82812 0.03125 0.30078 0.023438 0.73438 0.070312 1.2969 0.14062z"/>
  </symbol>
  <symbol id="c" overflow="visible">
   <path d="m27.562-12.031v2.1875h-17.891c0.1875 1.793 0.83203 3.1367 1.9375 4.0312 1.1133 0.89844 2.6719 1.3438 4.6719 1.3438 1.6016 0 3.25-0.23438 4.9375-0.70312 1.6875-0.47656 3.4219-1.2031 5.2031-2.1719v5.8906c-1.8047 0.6875-3.6094 1.2031-5.4219 1.5469-1.8125 0.35156-3.6211 0.53125-5.4219 0.53125-4.3359 0-7.7031-1.0977-10.109-3.2969-2.3984-2.207-3.5938-5.2969-3.5938-9.2656 0-3.9062 1.1758-6.9727 3.5312-9.2031 2.3633-2.2383 5.6094-3.3594 9.7344-3.3594 3.7578 0 6.7695 1.1367 9.0312 3.4062 2.2578 2.2617 3.3906 5.2812 3.3906 9.0625zm-7.8594-2.5312c0-1.457-0.42969-2.6289-1.2812-3.5156-0.84375-0.89453-1.9492-1.3438-3.3125-1.3438-1.4922 0-2.6992 0.41797-3.625 1.25-0.91797 0.83594-1.4922 2.0391-1.7188 3.6094z"/>
  </symbol>
  <symbol id="g" overflow="visible">
   <path d="m14.391-10.766c-1.5938 0-2.793 0.27344-3.5938 0.8125-0.80469 0.54297-1.2031 1.3398-1.2031 2.3906 0 0.96875 0.32031 1.7305 0.96875 2.2812 0.64453 0.54297 1.5469 0.8125 2.7031 0.8125 1.4375 0 2.6445-0.51562 3.625-1.5469 0.98828-1.0312 1.4844-2.3203 1.4844-3.875v-0.875zm11.688-2.8906v13.656h-7.7031v-3.5469c-1.0312 1.4492-2.1875 2.5078-3.4688 3.1719s-2.8398 1-4.6719 1c-2.4805 0-4.4961-0.72266-6.0469-2.1719-1.543-1.4453-2.3125-3.3203-2.3125-5.625 0-2.8125 0.96094-4.8672 2.8906-6.1719 1.9375-1.3125 4.9688-1.9688 9.0938-1.9688h4.5156v-0.60938c0-1.207-0.48047-2.0938-1.4375-2.6562-0.94922-0.5625-2.4375-0.84375-4.4688-0.84375-1.6367 0-3.1562 0.16797-4.5625 0.5-1.4062 0.32422-2.7188 0.8125-3.9375 1.4688v-5.8281c1.6445-0.40625 3.2891-0.70703 4.9375-0.90625 1.6562-0.20703 3.3047-0.3125 4.9531-0.3125 4.3203 0 7.4375 0.85547 9.3438 2.5625 1.9141 1.6992 2.875 4.4609 2.875 8.2812z"/>
  </symbol>
  <symbol id="b" overflow="visible">
   <path d="m12.031-30.719v6.7969h7.875v5.4688h-7.875v10.141c0 1.1172 0.21875 1.8711 0.65625 2.2656 0.4375 0.38672 1.3125 0.57812 2.625 0.57812h3.9375v5.4688h-6.5625c-3.0234 0-5.1641-0.62891-6.4219-1.8906-1.2617-1.2578-1.8906-3.3984-1.8906-6.4219v-10.141h-3.7969v-5.4688h3.7969v-6.7969z"/>
  </symbol>
  <symbol id="a" overflow="visible">
   <path d="m19.953-20.422v-12.812h7.6875v33.234h-7.6875v-3.4531c-1.0547 1.4062-2.2148 2.4375-3.4844 3.0938-1.2734 0.65625-2.7422 0.98438-4.4062 0.98438-2.9492 0-5.3711-1.1719-7.2656-3.5156-1.8867-2.3438-2.8281-5.3594-2.8281-9.0469s0.94141-6.7031 2.8281-9.0469c1.8945-2.3438 4.3164-3.5156 7.2656-3.5156 1.6562 0 3.1172 0.33594 4.3906 1 1.2812 0.65625 2.4453 1.6836 3.5 3.0781zm-5.0469 15.484c1.6445 0 2.8945-0.59766 3.75-1.7969 0.86328-1.1953 1.2969-2.9297 1.2969-5.2031 0-2.2812-0.43359-4.0195-1.2969-5.2188-0.85547-1.1953-2.1055-1.7969-3.75-1.7969-1.625 0-2.8711 0.60156-3.7344 1.7969-0.85547 1.1992-1.2812 2.9375-1.2812 5.2188 0 2.2734 0.42578 4.0078 1.2812 5.2031 0.86328 1.1992 2.1094 1.7969 3.7344 1.7969z"/>
  </symbol>
  <symbol id="f" overflow="visible">
   <path d="m16.406-4.9375c1.6328 0 2.8828-0.59766 3.75-1.7969 0.86328-1.1953 1.2969-2.9297 1.2969-5.2031 0-2.2812-0.43359-4.0195-1.2969-5.2188-0.86719-1.1953-2.1172-1.7969-3.75-1.7969-1.6367 0-2.8906 0.60547-3.7656 1.8125-0.875 1.1992-1.3125 2.9336-1.3125 5.2031 0 2.2617 0.4375 3.9961 1.3125 5.2031 0.875 1.1992 2.1289 1.7969 3.7656 1.7969zm-5.0781-15.484c1.0508-1.3945 2.2188-2.4219 3.5-3.0781 1.2812-0.66406 2.7539-1 4.4219-1 2.9453 0 5.3672 1.1719 7.2656 3.5156 1.8945 2.3438 2.8438 5.3594 2.8438 9.0469s-0.94922 6.7031-2.8438 9.0469c-1.8984 2.3438-4.3203 3.5156-7.2656 3.5156-1.668 0-3.1406-0.33594-4.4219-1s-2.4492-1.6914-3.5-3.0781v3.4531h-7.6562v-33.234h7.6562z"/>
  </symbol>
  <symbol id="e" overflow="visible">
   <path d="m0.53125-23.922h7.6562l6.4219 16.234 5.4688-16.234h7.6562l-10.062 26.188c-1.0117 2.6641-2.1953 4.5234-3.5469 5.5781-1.3438 1.0625-3.1211 1.5938-5.3281 1.5938h-4.4219v-5.0156h2.3906c1.3008 0 2.2422-0.21094 2.8281-0.625 0.59375-0.40625 1.0547-1.1484 1.3906-2.2188l0.20312-0.65625z"/>
  </symbol>
  <symbol id="d" overflow="visible">
   <path d="m26.219-30.891v6.75c-1.7617-0.78125-3.4766-1.3672-5.1406-1.7656-1.668-0.40625-3.2422-0.60938-4.7188-0.60938-1.9609 0-3.4141 0.27344-4.3594 0.8125-0.9375 0.54297-1.4062 1.3867-1.4062 2.5312 0 0.85547 0.31641 1.5234 0.95312 2 0.63281 0.46875 1.7852 0.875 3.4531 1.2188l3.5 0.70312c3.5391 0.71875 6.0625 1.8047 7.5625 3.25 1.5 1.4492 2.25 3.5117 2.25 6.1875 0 3.5234-1.0469 6.1406-3.1406 7.8594-2.0859 1.7188-5.2734 2.5781-9.5625 2.5781-2.0234 0-4.0547-0.19531-6.0938-0.57812-2.0312-0.38281-4.0625-0.95703-6.0938-1.7188v-6.9375c2.0312 1.0859 3.9922 1.9023 5.8906 2.4531 1.9062 0.54297 3.7422 0.8125 5.5156 0.8125 1.7891 0 3.1602-0.29688 4.1094-0.89062 0.95703-0.60156 1.4375-1.457 1.4375-2.5625 0-1-0.32422-1.7695-0.96875-2.3125-0.64844-0.53906-1.9375-1.0234-3.875-1.4531l-3.1875-0.70312c-3.1875-0.6875-5.5234-1.7734-7-3.2656-1.4688-1.5-2.2031-3.5156-2.2031-6.0469 0-3.1758 1.0234-5.6172 3.0781-7.3281 2.0508-1.707 5-2.5625 8.8438-2.5625 1.75 0 3.5508 0.13281 5.4062 0.39062 1.8516 0.26172 3.7695 0.65625 5.75 1.1875z"/>
  </symbol>
  <symbol id="n" overflow="visible">
   <path d="m3.4219-9.3125v-14.609h7.6875v2.3906c0 1.293-0.011719 2.918-0.03125 4.875-0.011719 1.9609-0.015625 3.2656-0.015625 3.9219 0 1.9297 0.046875 3.3125 0.14062 4.1562 0.10156 0.84375 0.28125 1.4609 0.53125 1.8438 0.3125 0.5 0.71875 0.88672 1.2188 1.1562 0.50781 0.27344 1.0938 0.40625 1.75 0.40625 1.5938 0 2.8438-0.60938 3.75-1.8281 0.91406-1.2266 1.375-2.9297 1.375-5.1094v-11.812h7.6406v23.922h-7.6406v-3.4531c-1.1562 1.3867-2.3828 2.4141-3.6719 3.0781-1.2812 0.66406-2.6992 1-4.25 1-2.7734 0-4.8828-0.84766-6.3281-2.5469-1.4375-1.6953-2.1562-4.1602-2.1562-7.3906z"/>
  </symbol>
  <symbol id="m" overflow="visible">
   <path d="m3.6719-23.922h7.6562v23.922h-7.6562zm0-9.3125h7.6562v6.2344h-7.6562z"/>
  </symbol>
  <symbol id="l" overflow="visible">
   <path d="m15.062-19.031c-1.6992 0-2.9961 0.60938-3.8906 1.8281-0.88672 1.2188-1.3281 2.9766-1.3281 5.2656 0 2.293 0.44141 4.0469 1.3281 5.2656 0.89453 1.2188 2.1914 1.8281 3.8906 1.8281 1.6641 0 2.9375-0.60938 3.8125-1.8281 0.88281-1.2188 1.3281-2.9727 1.3281-5.2656 0-2.2891-0.44531-4.0469-1.3281-5.2656-0.875-1.2188-2.1484-1.8281-3.8125-1.8281zm0-5.4688c4.1133 0 7.3281 1.1094 9.6406 3.3281s3.4688 5.2969 3.4688 9.2344c0 3.9297-1.1562 7.0078-3.4688 9.2344-2.3125 2.2188-5.5273 3.3281-9.6406 3.3281-4.1367 0-7.3711-1.1094-9.7031-3.3281-2.3242-2.2266-3.4844-5.3047-3.4844-9.2344 0-3.9375 1.1602-7.0156 3.4844-9.2344 2.332-2.2188 5.5664-3.3281 9.7031-3.3281z"/>
  </symbol>
  <symbol id="k" overflow="visible">
   <path d="m20.375-17.203c2.1562 0.5625 3.7891 1.5312 4.9062 2.9062 1.1133 1.375 1.6719 3.1211 1.6719 5.2344 0 3.168-1.2109 5.5742-3.625 7.2188-2.418 1.6484-5.9492 2.4688-10.594 2.4688-1.6367 0-3.2773-0.13672-4.9219-0.40625-1.6484-0.25781-3.2773-0.65625-4.8906-1.1875v-6.3438c1.5391 0.77344 3.0664 1.3555 4.5781 1.75 1.5195 0.38672 3.0156 0.57812 4.4844 0.57812 2.1758 0 3.8438-0.375 5-1.125 1.1641-0.75 1.75-1.832 1.75-3.25 0-1.4453-0.59375-2.5469-1.7812-3.2969s-2.9453-1.125-5.2656-1.125h-3.2969v-5.2969h3.4688c2.0625 0 3.5977-0.32031 4.6094-0.96875 1.0078-0.64453 1.5156-1.6289 1.5156-2.9531 0-1.2266-0.49219-2.1758-1.4688-2.8438-0.98047-0.67578-2.3711-1.0156-4.1719-1.0156-1.3242 0-2.6641 0.15234-4.0156 0.45312-1.3555 0.30469-2.6992 0.74609-4.0312 1.3281v-6.0312c1.625-0.44531 3.2344-0.78516 4.8281-1.0156 1.5938-0.22656 3.1602-0.34375 4.7031-0.34375 4.1328 0 7.2344 0.68359 9.2969 2.0469 2.0625 1.3555 3.0938 3.4023 3.0938 6.1406 0 1.8672-0.49609 3.3906-1.4844 4.5781-0.98047 1.1875-2.4336 2.0234-4.3594 2.5z"/>
  </symbol>
 
 </defs>
 <g>
  <path d="m367.5 253.75c0 25.527 10.141 50.008 28.191 68.059 18.051 18.051 42.531 28.191 68.059 28.191s50.008-10.141 68.059-28.191c18.051-18.051 28.191-42.531 28.191-68.059s-10.141-50.008-28.191-68.059c-18.051-18.051-42.531-28.191-68.059-28.191s-50.008 10.141-68.059 28.191c-18.051 18.051-28.191 42.531-28.191 68.059zm175 0c0 20.887-8.2969 40.918-23.066 55.684-14.766 14.77-34.797 23.066-55.684 23.066s-40.918-8.2969-55.684-23.066c-14.77-14.766-23.066-34.797-23.066-55.684s8.2969-40.918 23.066-55.684c14.766-14.77 34.797-23.066 55.684-23.066s40.918 8.2969 55.684 23.066c14.77 14.766 23.066 34.797 23.066 55.684z"/>
  <path d="m437.5 201.25v26.25h-26.25c-4.832 0-8.75 3.918-8.75 8.75v35c0 2.3203 0.92188 4.5469 2.5625 6.1875s3.8672 2.5625 6.1875 2.5625h26.25v26.25c0 2.3203 0.92188 4.5469 2.5625 6.1875s3.8672 2.5625 6.1875 2.5625h35c2.3203 0 4.5469-0.92188 6.1875-2.5625s2.5625-3.8672 2.5625-6.1875v-26.25h26.25c2.3203 0 4.5469-0.92188 6.1875-2.5625s2.5625-3.8672 2.5625-6.1875v-35c0-2.3203-0.92188-4.5469-2.5625-6.1875s-3.8672-2.5625-6.1875-2.5625h-26.25v-26.25c0-2.3203-0.92188-4.5469-2.5625-6.1875s-3.8672-2.5625-6.1875-2.5625h-35c-4.832 0-8.75 3.918-8.75 8.75zm17.5 35v-26.25h17.5v26.25c0 2.3203 0.92188 4.5469 2.5625 6.1875s3.8672 2.5625 6.1875 2.5625h26.25v17.5h-26.25c-4.832 0-8.75 3.918-8.75 8.75v26.25h-17.5v-26.25c0-2.3203-0.92188-4.5469-2.5625-6.1875s-3.8672-2.5625-6.1875-2.5625h-26.25v-17.5h26.25c2.3203 0 4.5469-0.92188 6.1875-2.5625s2.5625-3.8672 2.5625-6.1875z"/>
  <path d="m608.74 185.32-140-96.25c-3-2.0781-6.9766-2.0781-9.9766 0l-17.5 12.336v0.003906c-28.148-27.426-65.703-43.074-105-43.75h-10.59c-3.5 0-6.9141 0-10.324 0.78906l-112.17 11.547c-1.1367 0-3.7617 0.61328-10.676 2.1875v-5.8633c0.09375-5.8945-2.1602-11.586-6.2617-15.816-4.1016-4.2344-9.7188-6.6641-15.613-6.7578h-1.3125l-60.637 8.75c-5.8359 0.31641-11.312 2.9023-15.27 7.1992-3.9531 4.3008-6.0742 9.9727-5.9062 15.812v138.16c-0.09375 5.8945 2.1602 11.586 6.2617 15.816 4.1016 4.2344 9.7188 6.6641 15.613 6.7578h1.3125l60.637-8.75c5.4062-0.23828 10.543-2.4414 14.441-6.1914 3.8984-3.7539 6.293-8.8008 6.7344-14.195 11.578 1.8203 23.277 2.7852 35 2.8867l87.5 6.4766c1.5703 44.391 16.203 87.336 42.074 123.45 25.871 36.113 61.82 63.785 103.35 79.555 1.9805 0.69922 4.1445 0.69922 6.125 0 42.758-16.145 79.605-44.895 105.67-82.438 26.062-37.547 40.109-82.121 40.281-127.83v-16.711c-0.003906-2.8633-1.4102-5.543-3.7617-7.1758zm-433.74 19.164c0.15234 2.5938-1.7852 4.8438-4.375 5.0742h-1.3125l-60.375 8.75c-2.2305-0.44531-3.8594-2.3672-3.9375-4.6367v-138.16c-0.097656-1.2539 0.3125-2.4922 1.1328-3.4453 0.82031-0.95312 1.9883-1.5391 3.2422-1.6289h1.3125l60.375-8.75c2.3945 0.47656 4.0703 2.6406 3.9375 5.0742zm17.5-15.137v-99.141c6.4766-1.4883 11.199-2.5391 12.426-2.7109l111.39-11.375 9.2734-0.69922h9.7148c33.684 0.40625 66.031 13.242 90.824 36.051l-32.375 22.312c-0.39062-0.48047-0.83203-0.92187-1.3125-1.3125-26.078-15.582-56.332-22.734-86.625-20.477-5.7148 0.28125-11.41 0.86719-17.062 1.75l-2.7109 0.4375c-6.0977 0.875-11.707 3.8242-15.883 8.3477-4.1758 4.5273-6.6641 10.355-7.043 16.504-0.25391 7.1172 2.3984 14.035 7.3477 19.16 4.7422 4.8438 11.168 7.6641 17.938 7.875l56.352 8.75h1.3125c7.168 0.19141 12.836 6.1328 12.688 13.301-0.011719 3.5195-1.4297 6.8906-3.9375 9.3633-2.1758 2.2852-5.1602 3.6328-8.3125 3.7617l-117.77-8.75c-12.141-0.0625-24.258-1.1133-36.227-3.1484zm163.8-29.836v-0.003906c-3.1055-1.2031-6.3867-1.8828-9.7148-2.0117l-56.352-8.75h0.003906c-2.6602 0.027344-5.2383-0.90234-7.2617-2.625-1.7266-1.7344-2.6484-4.1172-2.5391-6.5625 0.46875-4.3828 3.9297-7.8438 8.3125-8.3125h2.8008c4.9766-0.85938 10.004-1.4141 15.051-1.6641 24.719-1.8789 49.461 3.3438 71.312 15.051zm238.7 49.695c-0.17578 41.52-12.766 82.039-36.156 116.34-23.391 34.305-56.508 60.828-95.094 76.156-37.242-14.742-69.438-39.926-92.719-72.52s-36.66-71.219-38.531-111.23l13.039 0.96094v0.003906c8.2227 0.10156 16.141-3.1133 21.961-8.9258 5.043-5.0938 8.1523-11.785 8.793-18.926 0.63672-7.1406-1.2344-14.277-5.293-20.188l92.75-64.051 131.25 90.301z"/>
  <path d="m376.25 437.5h-18.375c-1.1328-5.4648-3.3008-10.664-6.3867-15.312l13.039-13.039h-0.003906c3.4336-3.4297 3.4336-8.9922 0-12.422-3.4297-3.4336-8.9922-3.4336-12.422 0l-13.039 13.039v-0.003906c-4.6484-3.0859-9.8477-5.2539-15.312-6.3867v-18.375c0-4.832-3.918-8.75-8.75-8.75s-8.75 3.918-8.75 8.75v18.375c-5.4648 1.1328-10.664 3.3008-15.312 6.3867l-13.039-13.039v0.003906c-3.4297-3.4336-8.9922-3.4336-12.422 0-3.4336 3.4297-3.4336 8.9922 0 12.422l13.039 13.039h-0.003906c-3.0859 4.6484-5.2539 9.8477-6.3867 15.312h-18.375c-4.832 0-8.75 3.918-8.75 8.75s3.918 8.75 8.75 8.75h18.375c1.1328 5.4648 3.3008 10.664 6.3867 15.312l-13.039 13.039h0.003906c-1.6562 1.6406-2.5898 3.8789-2.5898 6.2109s0.93359 4.5703 2.5898 6.2109c1.6406 1.6562 3.8789 2.5898 6.2109 2.5898s4.5703-0.93359 6.2109-2.5898l13.039-13.039v0.003906c4.6484 3.0859 9.8477 5.2539 15.312 6.3867v18.375c0 4.832 3.918 8.75 8.75 8.75s8.75-3.918 8.75-8.75v-18.375c5.4648-1.1328 10.664-3.3008 15.312-6.3867l13.039 13.039v-0.003906c1.6406 1.6562 3.8789 2.5898 6.2109 2.5898s4.5703-0.93359 6.2109-2.5898c1.6562-1.6406 2.5898-3.8789 2.5898-6.2109s-0.93359-4.5703-2.5898-6.2109l-13.039-13.039h0.003906c3.0859-4.6484 5.2539-9.8477 6.3867-15.312h18.375c4.832 0 8.75-3.918 8.75-8.75s-3.918-8.75-8.75-8.75zm-61.25 35c-6.9609 0-13.641-2.7656-18.562-7.6875s-7.6875-11.602-7.6875-18.562 2.7656-13.641 7.6875-18.562 11.602-7.6875 18.562-7.6875 13.641 2.7656 18.562 7.6875 7.6875 11.602 7.6875 18.562-2.7656 13.641-7.6875 18.562-11.602 7.6875-18.562 7.6875z"/>
  <path d="m218.75 437.5h-18.375c-1.1328-5.4648-3.3008-10.664-6.3867-15.312l13.039-13.039h-0.003906c3.4336-3.4297 3.4336-8.9922 0-12.422-3.4297-3.4336-8.9922-3.4336-12.422 0l-13.039 13.039v-0.003906c-4.6484-3.0859-9.8477-5.2539-15.312-6.3867v-18.375c0-4.832-3.918-8.75-8.75-8.75s-8.75 3.918-8.75 8.75v18.375c-5.4648 1.1328-10.664 3.3008-15.312 6.3867l-13.039-13.035c-3.4297-3.4336-8.9922-3.4336-12.422 0-3.4336 3.4297-3.4336 8.9922 0 12.422l13.039 13.039h-0.003906c-1.3477 2.0977-2.5469 4.293-3.5859 6.5625h-21.176c-4.832 0-8.75 3.918-8.75 8.75s3.918 8.75 8.75 8.75h17.5c0.015625 8.5586 2.5391 16.926 7.2617 24.062l-13.035 13.039c-1.6562 1.6406-2.5898 3.8789-2.5898 6.2109s0.93359 4.5703 2.5898 6.2109c1.6406 1.6562 3.8789 2.5898 6.2109 2.5898s4.5703-0.93359 6.2109-2.5898l13.039-13.039v0.003906c4.6484 3.0859 9.8477 5.2539 15.312 6.3867v18.375c0 4.832 3.918 8.75 8.75 8.75s8.75-3.918 8.75-8.75v-18.375c5.4648-1.1328 10.664-3.3008 15.312-6.3867l13.039 13.039v-0.003906c1.6406 1.6562 3.8789 2.5898 6.2109 2.5898s4.5703-0.93359 6.2109-2.5898c1.6562-1.6406 2.5898-3.8789 2.5898-6.2109s-0.93359-4.5703-2.5898-6.2109l-13.039-13.039h0.003906c3.0859-4.6484 5.2539-9.8477 6.3867-15.312h18.375c4.832 0 8.75-3.918 8.75-8.75s-3.918-8.75-8.75-8.75zm-61.25 35c-6.9609 0-13.641-2.7656-18.562-7.6875s-7.6875-11.602-7.6875-18.562 2.7656-13.641 7.6875-18.562 11.602-7.6875 18.562-7.6875 13.641 2.7656 18.562 7.6875 7.6875 11.602 7.6875 18.562-2.7656 13.641-7.6875 18.562-11.602 7.6875-18.562 7.6875z"/>
  <path d="m245 357.88c5.4648-1.1328 10.664-3.3008 15.312-6.3867l13.039 13.039v-0.003906c1.6406 1.6562 3.8789 2.5898 6.2109 2.5898s4.5703-0.93359 6.2109-2.5898c1.6562-1.6406 2.5898-3.8789 2.5898-6.2109s-0.93359-4.5703-2.5898-6.2109l-13.039-13.039h0.003906c3.0859-4.6484 5.2539-9.8477 6.3867-15.312h18.375c4.832 0 8.75-3.918 8.75-8.75s-3.918-8.75-8.75-8.75h-18.375c-1.1328-5.4648-3.3008-10.664-6.3867-15.312l13.039-13.039h-0.003906c3.4336-3.4297 3.4336-8.9922 0-12.422-3.4297-3.4336-8.9922-3.4336-12.422 0l-13.039 13.039v-0.003906c-4.6484-3.0859-9.8477-5.2539-15.312-6.3867v-18.375c0-4.832-3.918-8.75-8.75-8.75s-8.75 3.918-8.75 8.75v18.375c-5.4648 1.1328-10.664 3.3008-15.312 6.3867l-13.039-13.039v0.003906c-3.4297-3.4336-8.9922-3.4336-12.422 0-3.4336 3.4297-3.4336 8.9922 0 12.422l13.039 13.039h-0.003906c-3.0859 4.6484-5.2539 9.8477-6.3867 15.312h-18.375c-4.832 0-8.75 3.918-8.75 8.75s3.918 8.75 8.75 8.75h18.375c1.1328 5.4648 3.3008 10.664 6.3867 15.312l-13.039 13.039h0.003906c-1.6562 1.6406-2.5898 3.8789-2.5898 6.2109s0.93359 4.5703 2.5898 6.2109c1.6406 1.6562 3.8789 2.5898 6.2109 2.5898s4.5703-0.93359 6.2109-2.5898l13.039-13.039v0.003906c4.6484 3.0859 9.8477 5.2539 15.312 6.3867v18.375c0 4.832 3.918 8.75 8.75 8.75s8.75-3.918 8.75-8.75zm-35-42.875c0-6.9609 2.7656-13.641 7.6875-18.562s11.602-7.6875 18.562-7.6875 13.641 2.7656 18.562 7.6875 7.6875 11.602 7.6875 18.562-2.7656 13.641-7.6875 18.562-11.602 7.6875-18.562 7.6875-13.641-2.7656-18.562-7.6875-7.6875-11.602-7.6875-18.562z"/>
  <use x="70" y="691.25" xlink:href="#o"/>
  <use x="102.109375" y="691.25" xlink:href="#h"/>
  <use x="123.683594" y="691.25" xlink:href="#c"/>
  <use x="153.355469" y="691.25" xlink:href="#g"/>
  <use x="182.878906" y="691.25" xlink:href="#b"/>
  <use x="203.792969" y="691.25" xlink:href="#c"/>
  <use x="233.464844" y="691.25" xlink:href="#a"/>
  <use x="280.011719" y="691.25" xlink:href="#f"/>
  <use x="311.328125" y="691.25" xlink:href="#e"/>
  <use x="355.078125" y="691.25" xlink:href="#d"/>
  <use x="386.589844" y="691.25" xlink:href="#b"/>
  <use x="407.503906" y="691.25" xlink:href="#n"/>
  <use x="438.648438" y="691.25" xlink:href="#a"/>
  <use x="469.964844" y="691.25" xlink:href="#m"/>
  <use x="484.960937" y="691.25" xlink:href="#l"/>
  
 </g>
</svg>
