<?xml version="1.0" encoding="UTF-8"?>
<svg width="700pt" height="700pt" version="1.1" viewBox="0 0 700 700" xmlns="http://www.w3.org/2000/svg" xmlns:xlink="http://www.w3.org/1999/xlink">
 <defs>
  <symbol id="o" overflow="visible">
   <path d="m29.312-1.75c-1.5117 0.78125-3.0898 1.3711-4.7344 1.7656-1.6367 0.40625-3.3398 0.60938-5.1094 0.60938-5.3125 0-9.5273-1.4844-12.641-4.4531-3.1055-2.9688-4.6562-7-4.6562-12.094s1.5508-9.125 4.6562-12.094c3.1133-2.9688 7.3281-4.4531 12.641-4.4531 1.7695 0 3.4727 0.19922 5.1094 0.59375 1.6445 0.39844 3.2227 0.99219 4.7344 1.7812v6.5938c-1.5312-1.0391-3.0391-1.8008-4.5156-2.2812-1.4805-0.48828-3.0391-0.73438-4.6719-0.73438-2.9375 0-5.2461 0.94531-6.9219 2.8281-1.6797 1.875-2.5156 4.4648-2.5156 7.7656 0 3.293 0.83594 5.8828 2.5156 7.7656 1.6758 1.875 3.9844 2.8125 6.9219 2.8125 1.6328 0 3.1914-0.23828 4.6719-0.71875 1.4766-0.48828 2.9844-1.2539 4.5156-2.2969z"/>
  </symbol>
  <symbol id="i" overflow="visible">
   <path d="m21.453-17.406c-0.67969-0.3125-1.3516-0.53906-2.0156-0.6875-0.65625-0.15625-1.3203-0.23438-1.9844-0.23438-1.9688 0-3.4844 0.63281-4.5469 1.8906-1.0547 1.2617-1.5781 3.0703-1.5781 5.4219v11.016h-7.6562v-23.922h7.6562v3.9219c0.97656-1.5625 2.1016-2.7031 3.375-3.4219 1.2812-0.71875 2.8125-1.0781 4.5938-1.0781 0.25 0 0.52344 0.011719 0.82812 0.03125 0.30078 0.023438 0.73438 0.070312 1.2969 0.14062z"/>
  </symbol>
  <symbol id="d" overflow="visible">
   <path d="m27.562-12.031v2.1875h-17.891c0.1875 1.793 0.83203 3.1367 1.9375 4.0312 1.1133 0.89844 2.6719 1.3438 4.6719 1.3438 1.6016 0 3.25-0.23438 4.9375-0.70312 1.6875-0.47656 3.4219-1.2031 5.2031-2.1719v5.8906c-1.8047 0.6875-3.6094 1.2031-5.4219 1.5469-1.8125 0.35156-3.6211 0.53125-5.4219 0.53125-4.3359 0-7.7031-1.0977-10.109-3.2969-2.3984-2.207-3.5938-5.2969-3.5938-9.2656 0-3.9062 1.1758-6.9727 3.5312-9.2031 2.3633-2.2383 5.6094-3.3594 9.7344-3.3594 3.7578 0 6.7695 1.1367 9.0312 3.4062 2.2578 2.2617 3.3906 5.2812 3.3906 9.0625zm-7.8594-2.5312c0-1.457-0.42969-2.6289-1.2812-3.5156-0.84375-0.89453-1.9492-1.3438-3.3125-1.3438-1.4922 0-2.6992 0.41797-3.625 1.25-0.91797 0.83594-1.4922 2.0391-1.7188 3.6094z"/>
  </symbol>
  <symbol id="a" overflow="visible">
   <path d="m14.391-10.766c-1.5938 0-2.793 0.27344-3.5938 0.8125-0.80469 0.54297-1.2031 1.3398-1.2031 2.3906 0 0.96875 0.32031 1.7305 0.96875 2.2812 0.64453 0.54297 1.5469 0.8125 2.7031 0.8125 1.4375 0 2.6445-0.51562 3.625-1.5469 0.98828-1.0312 1.4844-2.3203 1.4844-3.875v-0.875zm11.688-2.8906v13.656h-7.7031v-3.5469c-1.0312 1.4492-2.1875 2.5078-3.4688 3.1719s-2.8398 1-4.6719 1c-2.4805 0-4.4961-0.72266-6.0469-2.1719-1.543-1.4453-2.3125-3.3203-2.3125-5.625 0-2.8125 0.96094-4.8672 2.8906-6.1719 1.9375-1.3125 4.9688-1.9688 9.0938-1.9688h4.5156v-0.60938c0-1.207-0.48047-2.0938-1.4375-2.6562-0.94922-0.5625-2.4375-0.84375-4.4688-0.84375-1.6367 0-3.1562 0.16797-4.5625 0.5-1.4062 0.32422-2.7188 0.8125-3.9375 1.4688v-5.8281c1.6445-0.40625 3.2891-0.70703 4.9375-0.90625 1.6562-0.20703 3.3047-0.3125 4.9531-0.3125 4.3203 0 7.4375 0.85547 9.3438 2.5625 1.9141 1.6992 2.875 4.4609 2.875 8.2812z"/>
  </symbol>
  <symbol id="c" overflow="visible">
   <path d="m12.031-30.719v6.7969h7.875v5.4688h-7.875v10.141c0 1.1172 0.21875 1.8711 0.65625 2.2656 0.4375 0.38672 1.3125 0.57812 2.625 0.57812h3.9375v5.4688h-6.5625c-3.0234 0-5.1641-0.62891-6.4219-1.8906-1.2617-1.2578-1.8906-3.3984-1.8906-6.4219v-10.141h-3.7969v-5.4688h3.7969v-6.7969z"/>
  </symbol>
  <symbol id="h" overflow="visible">
   <path d="m19.953-20.422v-12.812h7.6875v33.234h-7.6875v-3.4531c-1.0547 1.4062-2.2148 2.4375-3.4844 3.0938-1.2734 0.65625-2.7422 0.98438-4.4062 0.98438-2.9492 0-5.3711-1.1719-7.2656-3.5156-1.8867-2.3438-2.8281-5.3594-2.8281-9.0469s0.94141-6.7031 2.8281-9.0469c1.8945-2.3438 4.3164-3.5156 7.2656-3.5156 1.6562 0 3.1172 0.33594 4.3906 1 1.2812 0.65625 2.4453 1.6836 3.5 3.0781zm-5.0469 15.484c1.6445 0 2.8945-0.59766 3.75-1.7969 0.86328-1.1953 1.2969-2.9297 1.2969-5.2031 0-2.2812-0.43359-4.0195-1.2969-5.2188-0.85547-1.1953-2.1055-1.7969-3.75-1.7969-1.625 0-2.8711 0.60156-3.7344 1.7969-0.85547 1.1992-1.2812 2.9375-1.2812 5.2188 0 2.2734 0.42578 4.0078 1.2812 5.2031 0.86328 1.1992 2.1094 1.7969 3.7344 1.7969z"/>
  </symbol>
  <symbol id="g" overflow="visible">
   <path d="m16.406-4.9375c1.6328 0 2.8828-0.59766 3.75-1.7969 0.86328-1.1953 1.2969-2.9297 1.2969-5.2031 0-2.2812-0.43359-4.0195-1.2969-5.2188-0.86719-1.1953-2.1172-1.7969-3.75-1.7969-1.6367 0-2.8906 0.60547-3.7656 1.8125-0.875 1.1992-1.3125 2.9336-1.3125 5.2031 0 2.2617 0.4375 3.9961 1.3125 5.2031 0.875 1.1992 2.1289 1.7969 3.7656 1.7969zm-5.0781-15.484c1.0508-1.3945 2.2188-2.4219 3.5-3.0781 1.2812-0.66406 2.7539-1 4.4219-1 2.9453 0 5.3672 1.1719 7.2656 3.5156 1.8945 2.3438 2.8438 5.3594 2.8438 9.0469s-0.94922 6.7031-2.8438 9.0469c-1.8984 2.3438-4.3203 3.5156-7.2656 3.5156-1.668 0-3.1406-0.33594-4.4219-1s-2.4492-1.6914-3.5-3.0781v3.4531h-7.6562v-33.234h7.6562z"/>
  </symbol>
  <symbol id="f" overflow="visible">
   <path d="m0.53125-23.922h7.6562l6.4219 16.234 5.4688-16.234h7.6562l-10.062 26.188c-1.0117 2.6641-2.1953 4.5234-3.5469 5.5781-1.3438 1.0625-3.1211 1.5938-5.3281 1.5938h-4.4219v-5.0156h2.3906c1.3008 0 2.2422-0.21094 2.8281-0.625 0.59375-0.40625 1.0547-1.1484 1.3906-2.2188l0.20312-0.65625z"/>
  </symbol>
  <symbol id="e" overflow="visible">
   <path d="m4.0156-31.891h13.656c4.0508 0 7.1602 0.90234 9.3281 2.7031 2.1758 1.8047 3.2656 4.3711 3.2656 7.7031 0 3.3438-1.0898 5.918-3.2656 7.7188-2.168 1.8047-5.2773 2.7031-9.3281 2.7031h-5.4375v11.062h-8.2188zm8.2188 5.9531v8.9062h4.5625c1.5938 0 2.8203-0.38281 3.6875-1.1562 0.875-0.78125 1.3125-1.8789 1.3125-3.2969 0-1.4258-0.4375-2.5234-1.3125-3.2969-0.86719-0.76953-2.0938-1.1562-3.6875-1.1562z"/>
  </symbol>
  <symbol id="b" overflow="visible">
   <path d="m27.734-14.562v14.562h-7.7031v-11.109c0-2.0938-0.046875-3.5312-0.14062-4.3125-0.085937-0.78125-0.24219-1.3594-0.46875-1.7344-0.30469-0.5-0.71094-0.88281-1.2188-1.1562-0.51172-0.28125-1.0938-0.42188-1.75-0.42188-1.5938 0-2.8516 0.61719-3.7656 1.8438-0.90625 1.2305-1.3594 2.9375-1.3594 5.125v11.766h-7.6562v-33.234h7.6562v12.812c1.1445-1.3945 2.3633-2.4219 3.6562-3.0781 1.3008-0.66406 2.7383-1 4.3125-1 2.7578 0 4.8516 0.85156 6.2812 2.5469 1.4375 1.6875 2.1562 4.1523 2.1562 7.3906z"/>
  </symbol>
  <symbol id="n" overflow="visible">
   <path d="m15.062-19.031c-1.6992 0-2.9961 0.60938-3.8906 1.8281-0.88672 1.2188-1.3281 2.9766-1.3281 5.2656 0 2.293 0.44141 4.0469 1.3281 5.2656 0.89453 1.2188 2.1914 1.8281 3.8906 1.8281 1.6641 0 2.9375-0.60938 3.8125-1.8281 0.88281-1.2188 1.3281-2.9727 1.3281-5.2656 0-2.2891-0.44531-4.0469-1.3281-5.2656-0.875-1.2188-2.1484-1.8281-3.8125-1.8281zm0-5.4688c4.1133 0 7.3281 1.1094 9.6406 3.3281s3.4688 5.2969 3.4688 9.2344c0 3.9297-1.1562 7.0078-3.4688 9.2344-2.3125 2.2188-5.5273 3.3281-9.6406 3.3281-4.1367 0-7.3711-1.1094-9.7031-3.3281-2.3242-2.2266-3.4844-5.3047-3.4844-9.2344 0-3.9375 1.1602-7.0156 3.4844-9.2344 2.332-2.2188 5.5664-3.3281 9.7031-3.3281z"/>
  </symbol>
  <symbol id="m" overflow="visible">
   <path d="m27.734-14.562v14.562h-7.7031v-11.156c0-2.0625-0.046875-3.4844-0.14062-4.2656-0.085937-0.78125-0.24219-1.3594-0.46875-1.7344-0.30469-0.5-0.71094-0.88281-1.2188-1.1562-0.51172-0.28125-1.0938-0.42188-1.75-0.42188-1.5938 0-2.8516 0.61719-3.7656 1.8438-0.90625 1.2305-1.3594 2.9375-1.3594 5.125v11.766h-7.6562v-23.922h7.6562v3.5c1.1445-1.3945 2.3633-2.4219 3.6562-3.0781 1.3008-0.66406 2.7383-1 4.3125-1 2.7578 0 4.8516 0.85156 6.2812 2.5469 1.4375 1.6875 2.1562 4.1523 2.1562 7.3906z"/>
  </symbol>
  <symbol id="l" overflow="visible">
   <path d="m3.6719-33.234h7.6562v33.234h-7.6562z"/>
  </symbol>
  <symbol id="k" overflow="visible">
   <path d="m11.328-3.4531v12.547h-7.6562v-33.016h7.6562v3.5c1.0508-1.3945 2.2188-2.4219 3.5-3.0781 1.2812-0.66406 2.7539-1 4.4219-1 2.9453 0 5.3672 1.1719 7.2656 3.5156 1.8945 2.3438 2.8438 5.3594 2.8438 9.0469s-0.94922 6.7031-2.8438 9.0469c-1.8984 2.3438-4.3203 3.5156-7.2656 3.5156-1.668 0-3.1406-0.33594-4.4219-1s-2.4492-1.6914-3.5-3.0781zm5.0781-15.5c-1.6367 0-2.8906 0.60547-3.7656 1.8125-0.875 1.1992-1.3125 2.9336-1.3125 5.2031 0 2.2617 0.4375 3.9961 1.3125 5.2031 0.875 1.1992 2.1289 1.7969 3.7656 1.7969 1.6328 0 2.8828-0.59766 3.75-1.7969 0.86328-1.1953 1.2969-2.9297 1.2969-5.2031 0-2.2812-0.43359-4.0195-1.2969-5.2188-0.86719-1.1953-2.1172-1.7969-3.75-1.7969z"/>
  </symbol>
  <symbol id="j" overflow="visible">
   <path d="m0.21875-31.891h29.391v6.2188h-10.578v25.672h-8.2188v-25.672h-10.594z"/>
  </symbol>
 </defs>
 <g>
  <path d="m428.75 105c-11.602 0-22.73 4.6094-30.938 12.812-8.2031 8.207-12.812 19.336-12.812 30.938v15.398l-8.75-8.75v-85.398h26.25c2.3203 0 4.5469-0.92188 6.1875-2.5625s2.5625-3.8672 2.5625-6.1875v-35c0-2.3203-0.92188-4.5469-2.5625-6.1875s-3.8672-2.5625-6.1875-2.5625h-105c-4.832 0-8.75 3.918-8.75 8.75v35c0 2.3203 0.92188 4.5469 2.5625 6.1875s3.8672 2.5625 6.1875 2.5625h26.25v85.398l-8.75 8.75v-15.398c0-11.602-4.6094-22.73-12.812-30.938-8.207-8.2031-19.336-12.812-30.938-12.812-48.719 0.054688-95.422 19.43-129.87 53.879-34.449 34.449-53.824 81.152-53.879 129.87v227.5c0.019531 6.957 2.793 13.621 7.7109 18.539 4.918 4.918 11.582 7.6914 18.539 7.7109h17.5c24.551 0.046875 48.859-4.8555 71.469-14.418 22.613-9.5625 43.062-23.586 60.133-41.23 10.332 22.277 28.801 39.754 51.617 48.836s48.246 9.082 71.062 0 41.285-26.559 51.617-48.836c17.07 17.645 37.52 31.668 60.133 41.23 22.609 9.5625 46.918 14.465 71.469 14.418h17.5c6.957-0.019531 13.621-2.793 18.539-7.7109 4.918-4.918 7.6914-11.582 7.7109-18.539v-227.5c-0.054688-48.719-19.43-95.422-53.879-129.87-34.449-34.449-81.152-53.824-129.87-53.879zm-122.5-52.5v-17.5h87.5v17.5zm35 35v-17.5h17.5v17.5zm17.5 17.5v17.5h-17.5v-17.5zm-20.039 60.199c1.6133-1.668 2.5234-3.8906 2.5391-6.2109v-18.988h17.5v18.988c0.015625 2.3203 0.92578 4.543 2.5391 6.2109l148.75 148.75c2.9727 3.4727 2.7734 8.6484-0.46094 11.879-3.2305 3.2344-8.4062 3.4336-11.879 0.46094l-141.49-141.49c-3.4375-3.4141-8.9844-3.4141-12.422 0l-141.49 141.49c-1.5859 1.8516-3.8711 2.957-6.3086 3.0508s-4.8008-0.83203-6.5234-2.5586c-1.7266-1.7227-2.6523-4.0859-2.5586-6.5234s1.1992-4.7227 3.0508-6.3086zm46.289 73.152v118.3c-22.492-8.8672-47.508-8.8672-70 0v-118.3l35-35zm-128.62 229.69c-15.559 17.902-34.781 32.254-56.371 42.082-21.586 9.8281-45.035 14.902-68.754 14.879h-17.5c-4.832 0-8.75-3.918-8.75-8.75v-227.5c0.039062-44.082 17.566-86.344 48.738-117.51 31.168-31.172 73.43-48.699 117.51-48.738 6.9688-0.027344 13.664 2.7305 18.594 7.6562 4.9258 4.9297 7.6836 11.625 7.6562 18.594v32.898l-38.238 38.238-12.512-18.637 31.762-47.688-14.523-9.625-12.688 18.898-18.988-12.602-9.625 14.523 18.898 12.688-12.602 18.988 0.003906 0.003906c-2.0117 2.9258-2.0117 6.7891 0 9.7109l17.586 26.336-57.75 57.75-27.301-13.648 26.953-40.336h30.273v-17.5h-30.625l-23.625-31.5-14 10.5 22.574 30.012-9.8008 14.699-28.086-14-7.875 15.574 26.164 13.125-11.988 18.027c-1.4062 2.0781-1.8516 4.6602-1.2266 7.0859 0.6875 2.3906 2.3359 4.3867 4.5508 5.5156l31.238 15.664v-0.003906c-5.7109 6.832-7.5273 16.109-4.8125 24.59l-25.199 10.148-6.3008-25.289-16.977 4.1992 8.75 35h0.17578v0.003906c0.12891 0.82422 0.39453 1.6211 0.78906 2.3594l24.062 40.074-14.875 37.188-23.977 16.016 9.625 14.523 16.801-11.113 13.824 41.648 16.625-5.6016-16.539-49.438 12.336-30.711 17.324 11.461 9.625-14.523-24.586-16.449-19.949-33.25 29.75-11.898c5.043 2.9609 10.906 4.2031 16.715 3.543 5.8086-0.66406 11.242-3.1953 15.488-7.2188l27.387-27.477 9.8867 13.039-21.613 35.961-23.188 7.6992 5.6016 16.625 14.699-4.8945v31.586h17.5v-41.301l25.023-41.738c1.8086-3.043 1.6016-6.8789-0.52344-9.7109l-14.875-19.773 42.875-42.875v102.9c0 2.3633-0.17578 4.7266-0.26172 7.0859-27.113 17.773-43.457 47.996-43.488 80.414 0.019531 7.3398 0.90234 14.652 2.625 21.789zm93.625 56.961c-20.887 0-40.918-8.2969-55.684-23.066-14.77-14.766-23.066-34.797-23.066-55.684s8.2969-40.918 23.066-55.684c14.766-14.77 34.797-23.066 55.684-23.066s40.918 8.2969 55.684 23.066c14.77 14.766 23.066 34.797 23.066 55.684-0.03125 20.875-8.3398 40.887-23.102 55.648-14.762 14.762-34.773 23.07-55.648 23.102zm245-8.75c0 2.3203-0.92188 4.5469-2.5625 6.1875s-3.8672 2.5625-6.1875 2.5625h-17.5c-23.719 0.023438-47.168-5.0508-68.754-14.879-21.59-9.8281-40.812-24.18-56.371-42.082 1.7227-7.1367 2.6055-14.449 2.625-21.789-0.03125-32.418-16.375-62.641-43.488-80.414-0.085938-2.3633-0.26172-4.7266-0.26172-7.0859v-102.9l42.875 42.875-14.875 19.773c-2.125 2.832-2.332 6.668-0.52344 9.7109l25.023 41.738v41.301h17.5v-31.586l14.699 4.8984 5.6016-16.625-23.188-7.6992-21.613-35.965 9.8867-13.039 27.387 27.477c4.1641 4.1914 9.6211 6.8438 15.488 7.5273 5.8633 0.68359 11.789-0.64453 16.801-3.7617l29.664 11.812-19.949 33.25-24.586 16.449 9.625 14.523 17.324-11.461 12.336 30.711-16.539 49.438 16.625 5.6016 13.824-41.648 16.801 11.113 9.625-14.523-23.977-16.012-14.875-37.188 24.062-40.074v-0.007812c0.39453-0.73828 0.66016-1.5352 0.78906-2.3594h0.17578l8.75-35-16.977-4.1992-6.3008 25.289-25.199-10.148v-0.003907c2.7148-8.4805 0.89844-17.758-4.8125-24.59l31.238-15.664v0.003906c2.2148-1.1289 3.8633-3.125 4.5508-5.5156 0.625-2.4258 0.17969-5.0078-1.2266-7.0859l-11.988-18.023 26.164-13.125-7.875-15.574-28.086 14-9.8008-14.699 22.574-30.016-14-10.5-23.625 31.5h-30.625v17.5h30.273l26.949 40.336-27.301 13.648-57.75-57.75 17.586-26.336h0.003907c2.0117-2.9219 2.0117-6.7852 0-9.7109l-12.602-18.988 18.898-12.688-9.625-14.523-18.988 12.602-12.688-18.898-14.523 9.625 31.766 47.684-12.512 18.637-38.238-38.238v-32.898c-0.027344-6.9688 2.7305-13.664 7.6562-18.594 4.9297-4.9258 11.625-7.6836 18.594-7.6562 44.082 0.039062 86.344 17.566 117.51 48.738 31.172 31.168 48.699 73.43 48.738 117.51z"/>
  <path d="m392.88 437.5c-1.1289-5.4766-3.3008-10.688-6.4062-15.34l13.039-13.039-12.371-12.371-13.039 13.039c-4.6562-3.1094-9.8672-5.2852-15.348-6.4141v-18.375h-17.5v18.375c-5.4766 1.1289-10.688 3.3008-15.34 6.4062l-13.039-13.039-12.371 12.371 13.039 13.039c-3.1094 4.6562-5.2852 9.8672-6.4141 15.348h-18.375v17.5h18.375c1.1289 5.4766 3.3008 10.688 6.4062 15.34l-13.039 13.039 12.371 12.371 13.039-13.039c4.6562 3.1094 9.8672 5.2852 15.348 6.4141v18.375h17.5v-18.375c5.4766-1.1289 10.688-3.3008 15.34-6.4062l13.039 13.039 12.371-12.371-13.039-13.039c3.1094-4.6562 5.2852-9.8672 6.4141-15.348h18.375v-17.5zm-42.875 35c-6.9609 0-13.641-2.7656-18.562-7.6875s-7.6875-11.602-7.6875-18.562 2.7656-13.641 7.6875-18.562 11.602-7.6875 18.562-7.6875 13.641 2.7656 18.562 7.6875 7.6875 11.602 7.6875 18.562-2.7656 13.641-7.6875 18.562-11.602 7.6875-18.562 7.6875z"/>
  <path d="m341.25 437.5h17.5v17.5h-17.5z"/>
  <use x="70" y="691.25" xlink:href="#o"/>
  <use x="102.109375" y="691.25" xlink:href="#i"/>
  <use x="123.683594" y="691.25" xlink:href="#d"/>
  <use x="153.355469" y="691.25" xlink:href="#a"/>
  <use x="182.878906" y="691.25" xlink:href="#c"/>
  <use x="203.792969" y="691.25" xlink:href="#d"/>
  <use x="233.464844" y="691.25" xlink:href="#h"/>
  <use x="280.011719" y="691.25" xlink:href="#g"/>
  <use x="311.328125" y="691.25" xlink:href="#f"/>
  <use x="355.078125" y="691.25" xlink:href="#e"/>
  <use x="387.144531" y="691.25" xlink:href="#b"/>
  <use x="418.289062" y="691.25" xlink:href="#n"/>
  <use x="448.347656" y="691.25" xlink:href="#m"/>
  <use x="479.492187" y="691.25" xlink:href="#l"/>
  <use x="494.492188" y="691.25" xlink:href="#a"/>
  <use x="524.011719" y="691.25" xlink:href="#k"/>
  <use x="555.332031" y="691.25" xlink:href="#b"/>
  <use x="586.476562" y="691.25" xlink:href="#a"/>
  <use x="616" y="691.25" xlink:href="#c"/>
  <use x="652.144531" y="691.25" xlink:href="#j"/>
  <use x="681.988281" y="691.25" xlink:href="#b"/>
 </g>
</svg>
