<?xml version="1.0" encoding="UTF-8"?>
<svg width="700pt" height="700pt" version="1.1" viewBox="0 0 700 700" xmlns="http://www.w3.org/2000/svg" xmlns:xlink="http://www.w3.org/1999/xlink">
 <defs>
  <symbol id="v" overflow="visible">
   <path d="m19.547-1.1719c-1.0117 0.52344-2.0625 0.91406-3.1562 1.1719-1.0938 0.26953-2.2344 0.40625-3.4219 0.40625-3.543 0-6.3516-0.98828-8.4219-2.9688-2.0625-1.9766-3.0938-4.6602-3.0938-8.0469 0-3.4062 1.0312-6.0977 3.0938-8.0781 2.0703-1.9766 4.8789-2.9688 8.4219-2.9688 1.1875 0 2.3281 0.13672 3.4219 0.40625 1.0938 0.26172 2.1445 0.65625 3.1562 1.1875v4.3906c-1.0234-0.6875-2.0273-1.1914-3.0156-1.5156-0.98047-0.32031-2.0156-0.48438-3.1094-0.48438-1.9609 0-3.5 0.625-4.625 1.875-1.1172 1.25-1.6719 2.9805-1.6719 5.1875 0 2.1875 0.55469 3.9141 1.6719 5.1719 1.125 1.25 2.6641 1.875 4.625 1.875 1.0938 0 2.1289-0.16016 3.1094-0.48438 0.98828-0.32031 1.9922-0.82812 3.0156-1.5156z"/>
  </symbol>
  <symbol id="b" overflow="visible">
   <path d="m14.297-11.609c-0.44922-0.20703-0.89062-0.35938-1.3281-0.45312-0.4375-0.10156-0.88281-0.15625-1.3281-0.15625-1.3125 0-2.3242 0.42188-3.0312 1.2656-0.71094 0.83594-1.0625 2.0391-1.0625 3.6094v7.3438h-5.0938v-15.953h5.0938v2.625c0.65625-1.0508 1.4062-1.8164 2.25-2.2969 0.85156-0.47656 1.875-0.71875 3.0625-0.71875 0.17578 0 0.36328 0.011719 0.5625 0.03125 0.19531 0.011719 0.48438 0.042969 0.85938 0.09375z"/>
  </symbol>
  <symbol id="a" overflow="visible">
   <path d="m18.375-8.0156v1.4531h-11.922c0.125 1.1992 0.55469 2.0938 1.2969 2.6875 0.73828 0.59375 1.7734 0.89062 3.1094 0.89062 1.0703 0 2.1719-0.15625 3.2969-0.46875 1.125-0.32031 2.2812-0.80469 3.4688-1.4531v3.9375c-1.2109 0.46094-2.418 0.80469-3.625 1.0312-1.2109 0.22656-2.4141 0.34375-3.6094 0.34375-2.8984 0-5.1484-0.72656-6.75-2.1875-1.5938-1.4688-2.3906-3.5312-2.3906-6.1875 0-2.5938 0.78516-4.6328 2.3594-6.125 1.5703-1.5 3.7344-2.25 6.4844-2.25 2.5078 0 4.5156 0.75781 6.0156 2.2656 1.5078 1.5117 2.2656 3.5312 2.2656 6.0625zm-5.2344-1.7031c0-0.96875-0.28906-1.75-0.85938-2.3438-0.5625-0.59375-1.2969-0.89062-2.2031-0.89062-0.99219 0-1.7969 0.28125-2.4219 0.84375-0.61719 0.55469-0.99609 1.3516-1.1406 2.3906z"/>
  </symbol>
  <symbol id="e" overflow="visible">
   <path d="m9.5938-7.1719c-1.0625 0-1.8672 0.18359-2.4062 0.54688-0.53125 0.35547-0.79688 0.88281-0.79688 1.5781 0 0.64844 0.21094 1.1523 0.64062 1.5156 0.4375 0.36719 1.0391 0.54688 1.8125 0.54688 0.95703 0 1.7656-0.34375 2.4219-1.0312s0.98438-1.5469 0.98438-2.5781v-0.57812zm7.7969-1.9375v9.1094h-5.1406v-2.3594c-0.6875 0.96875-1.4609 1.6719-2.3125 2.1094-0.85547 0.4375-1.8906 0.65625-3.1094 0.65625-1.6562 0-3-0.47656-4.0312-1.4375-1.0312-0.96875-1.5469-2.2188-1.5469-3.75 0-1.875 0.64062-3.25 1.9219-4.125 1.2891-0.875 3.3164-1.3125 6.0781-1.3125h3v-0.39062c0-0.8125-0.32031-1.4062-0.95312-1.7812-0.63672-0.375-1.6328-0.5625-2.9844-0.5625-1.0859 0-2.1016 0.10938-3.0469 0.32812-0.9375 0.21875-1.8086 0.54688-2.6094 0.98438v-3.8906c1.082-0.25781 2.1758-0.45703 3.2812-0.59375 1.1016-0.14453 2.207-0.21875 3.3125-0.21875 2.875 0 4.9453 0.57031 6.2188 1.7031 1.2812 1.1367 1.9219 2.9805 1.9219 5.5312z"/>
  </symbol>
  <symbol id="d" overflow="visible">
   <path d="m8.0156-20.484v4.5312h5.2656v3.6406h-5.2656v6.7656c0 0.74219 0.14453 1.2461 0.4375 1.5156 0.30078 0.26172 0.89062 0.39062 1.7656 0.39062h2.6094v3.6406h-4.3594c-2.0234 0-3.4531-0.41406-4.2969-1.25-0.83594-0.84375-1.25-2.2734-1.25-4.2969v-6.7656h-2.5312v-3.6406h2.5312v-4.5312z"/>
  </symbol>
  <symbol id="j" overflow="visible">
   <path d="m13.297-13.625v-8.5312h5.1406v22.156h-5.1406v-2.3125c-0.69922 0.94922-1.4688 1.6406-2.3125 2.0781-0.84375 0.42578-1.8242 0.64062-2.9375 0.64062-1.9688 0-3.5859-0.77344-4.8438-2.3281-1.2617-1.5625-1.8906-3.5781-1.8906-6.0469 0-2.457 0.62891-4.4688 1.8906-6.0312 1.2578-1.5625 2.875-2.3438 4.8438-2.3438 1.1016 0 2.0781 0.22656 2.9219 0.67188 0.85156 0.4375 1.6289 1.1211 2.3281 2.0469zm-3.3594 10.328c1.0938 0 1.9258-0.39453 2.5-1.1875 0.57031-0.80078 0.85938-1.9609 0.85938-3.4844 0-1.5078-0.28906-2.6641-0.85938-3.4688-0.57422-0.80078-1.4062-1.2031-2.5-1.2031-1.0859 0-1.9141 0.40234-2.4844 1.2031-0.57422 0.80469-0.85938 1.9609-0.85938 3.4688 0 1.5234 0.28516 2.6836 0.85938 3.4844 0.57031 0.79297 1.3984 1.1875 2.4844 1.1875z"/>
  </symbol>
  <symbol id="i" overflow="visible">
   <path d="m10.938-3.2969c1.0938 0 1.9258-0.39453 2.5-1.1875 0.57031-0.80078 0.85938-1.9609 0.85938-3.4844 0-1.5078-0.28906-2.6641-0.85938-3.4688-0.57422-0.80078-1.4062-1.2031-2.5-1.2031s-1.9336 0.40234-2.5156 1.2031c-0.58594 0.80469-0.875 1.9609-0.875 3.4688 0 1.5117 0.28906 2.668 0.875 3.4688 0.58203 0.80469 1.4219 1.2031 2.5156 1.2031zm-3.3906-10.328c0.70703-0.92578 1.4883-1.6094 2.3438-2.0469 0.85156-0.44531 1.832-0.67188 2.9375-0.67188 1.9688 0 3.582 0.78125 4.8438 2.3438 1.2695 1.5625 1.9062 3.5742 1.9062 6.0312 0 2.4688-0.63672 4.4844-1.9062 6.0469-1.2617 1.5547-2.875 2.3281-4.8438 2.3281-1.1055 0-2.0859-0.21875-2.9375-0.65625-0.85547-0.4375-1.6367-1.125-2.3438-2.0625v2.3125h-5.0938v-22.156h5.0938z"/>
  </symbol>
  <symbol id="h" overflow="visible">
   <path d="m0.35938-15.953h5.0938l4.2969 10.828 3.6406-10.828h5.0938l-6.7031 17.469c-0.67969 1.7695-1.4648 3.0078-2.3594 3.7188-0.89844 0.70703-2.0781 1.0625-3.5469 1.0625h-2.9531v-3.3438h1.5938c0.86328 0 1.4922-0.14062 1.8906-0.42188 0.39453-0.27344 0.70312-0.76562 0.92188-1.4844l0.14062-0.4375z"/>
  </symbol>
  <symbol id="f" overflow="visible">
   <path d="m12.953-22.156v3.3438h-2.8281c-0.71875 0-1.2266 0.13281-1.5156 0.39062-0.28125 0.26172-0.42188 0.71484-0.42188 1.3594v1.1094h4.3594v3.6406h-4.3594v12.312h-5.0938v-12.312h-2.5312v-3.6406h2.5312v-1.1094c0-1.7383 0.48438-3.0195 1.4531-3.8438 0.96875-0.83203 2.4688-1.25 4.5-1.25z"/>
  </symbol>
  <symbol id="u" overflow="visible">
   <path d="m2.4531-15.953h5.0938v15.953h-5.0938zm0-6.2031h5.0938v4.1562h-5.0938z"/>
  </symbol>
  <symbol id="g" overflow="visible">
   <path d="m14.906-15.453v3.875c-1.0859-0.45703-2.1367-0.80078-3.1562-1.0312-1.0117-0.22656-1.9688-0.34375-2.875-0.34375-0.96875 0-1.6875 0.125-2.1562 0.375-0.46875 0.24219-0.70312 0.60938-0.70312 1.1094 0 0.40625 0.17578 0.71875 0.53125 0.9375 0.35156 0.21875 0.99219 0.38281 1.9219 0.48438l0.89062 0.14062c2.6133 0.32422 4.3672 0.86719 5.2656 1.625 0.90625 0.76172 1.3594 1.9531 1.3594 3.5781 0 1.6992-0.63281 2.9766-1.8906 3.8281-1.25 0.85547-3.1211 1.2812-5.6094 1.2812-1.0547 0-2.1406-0.085938-3.2656-0.25-1.125-0.15625-2.2812-0.39844-3.4688-0.73438v-3.875c1.0195 0.49219 2.0625 0.85938 3.125 1.1094 1.0703 0.24219 2.1602 0.35938 3.2656 0.35938 0.98828 0 1.7344-0.13281 2.2344-0.40625 0.50781-0.26953 0.76562-0.67578 0.76562-1.2188 0-0.45703-0.17969-0.79688-0.53125-1.0156-0.34375-0.22656-1.0312-0.40625-2.0625-0.53125l-0.89062-0.10938c-2.2734-0.28125-3.8672-0.80469-4.7812-1.5781-0.90625-0.76953-1.3594-1.9414-1.3594-3.5156 0-1.6875 0.57812-2.9375 1.7344-3.75 1.1562-0.82031 2.9297-1.2344 5.3281-1.2344 0.9375 0 1.9219 0.074219 2.9531 0.21875 1.0391 0.14844 2.1641 0.37109 3.375 0.67188z"/>
  </symbol>
  <symbol id="t" overflow="visible">
   <path d="m2.4531-22.156h5.0938v22.156h-5.0938z"/>
  </symbol>
  <symbol id="c" overflow="visible">
   <path d="m10.047-12.688c-1.1367 0-2 0.40625-2.5938 1.2188s-0.89062 1.9805-0.89062 3.5c0 1.5312 0.29688 2.7031 0.89062 3.5156s1.457 1.2188 2.5938 1.2188c1.1016 0 1.9453-0.40625 2.5312-1.2188 0.59375-0.8125 0.89062-1.9844 0.89062-3.5156 0-1.5195-0.29688-2.6875-0.89062-3.5-0.58594-0.8125-1.4297-1.2188-2.5312-1.2188zm0-3.6562c2.7383 0 4.8789 0.74609 6.4219 2.2344 1.5391 1.4805 2.3125 3.5273 2.3125 6.1406 0 2.625-0.77344 4.6797-2.3125 6.1562-1.543 1.4805-3.6836 2.2188-6.4219 2.2188-2.7617 0-4.918-0.73828-6.4688-2.2188-1.5547-1.4766-2.3281-3.5312-2.3281-6.1562 0-2.6133 0.77344-4.6602 2.3281-6.1406 1.5508-1.4883 3.707-2.2344 6.4688-2.2344z"/>
  </symbol>
  <symbol id="s" overflow="visible">
   <path d="m0.4375-15.953h5.1094l3.9688 11.031 3.9531-11.031h5.125l-6.2812 15.953h-5.6094z"/>
  </symbol>
  <symbol id="r" overflow="visible">
   <path d="m17.234-13.297c0.64453-0.98828 1.4102-1.7422 2.2969-2.2656 0.89453-0.51953 1.875-0.78125 2.9375-0.78125 1.832 0 3.2266 0.57031 4.1875 1.7031 0.95703 1.125 1.4375 2.7656 1.4375 4.9219v9.7188h-5.125v-8.3125-0.39062c0.007812-0.13281 0.015625-0.32031 0.015625-0.5625 0-1.1328-0.16797-1.9531-0.5-2.4531-0.32422-0.50781-0.85938-0.76562-1.6094-0.76562-0.96875 0-1.7188 0.40234-2.25 1.2031-0.52344 0.79297-0.79297 1.9453-0.8125 3.4531v7.8281h-5.125v-8.3125c0-1.7695-0.15234-2.9062-0.45312-3.4062-0.30469-0.50781-0.84375-0.76562-1.625-0.76562-0.98047 0-1.7344 0.40234-2.2656 1.2031-0.53125 0.80469-0.79688 1.9492-0.79688 3.4375v7.8438h-5.125v-15.953h5.125v2.3281c0.625-0.89453 1.3438-1.5703 2.1562-2.0312 0.8125-0.45703 1.707-0.6875 2.6875-0.6875 1.1016 0 2.0781 0.26562 2.9219 0.79688s1.4844 1.2812 1.9219 2.25z"/>
  </symbol>
  <symbol id="q" overflow="visible">
   <path d="m18.484-9.7188v9.7188h-5.125v-7.4062c0-1.3945-0.03125-2.3516-0.09375-2.875-0.0625-0.51953-0.16797-0.90625-0.3125-1.1562-0.19922-0.33203-0.46875-0.58594-0.8125-0.76562-0.34375-0.1875-0.73438-0.28125-1.1719-0.28125-1.0625 0-1.9023 0.41406-2.5156 1.2344-0.60547 0.8125-0.90625 1.9492-0.90625 3.4062v7.8438h-5.0938v-22.156h5.0938v8.5312c0.76953-0.92578 1.5859-1.6094 2.4531-2.0469 0.86328-0.44531 1.8164-0.67188 2.8594-0.67188 1.8438 0 3.2383 0.57031 4.1875 1.7031 0.95703 1.125 1.4375 2.7656 1.4375 4.9219z"/>
  </symbol>
  <symbol id="p" overflow="visible">
   <path d="m2.6719-21.266h6.125l7.7344 14.578v-14.578h5.2031v21.266h-6.125l-7.7344-14.594v14.594h-5.2031z"/>
  </symbol>
  <symbol id="o" overflow="visible">
   <path d="m2.2812-6.2031v-9.75h5.125v1.5938c0 0.86719-0.007812 1.9531-0.015625 3.2656-0.011719 1.3047-0.015625 2.1719-0.015625 2.6094 0 1.2812 0.03125 2.2031 0.09375 2.7656 0.070312 0.5625 0.1875 0.97656 0.34375 1.2344 0.21875 0.33594 0.49219 0.58984 0.82812 0.76562 0.33203 0.17969 0.71875 0.26562 1.1562 0.26562 1.0625 0 1.8945-0.40625 2.5-1.2188 0.61328-0.8125 0.92188-1.9453 0.92188-3.4062v-7.875h5.0938v15.953h-5.0938v-2.3125c-0.77344 0.9375-1.5898 1.625-2.4531 2.0625-0.85547 0.4375-1.7969 0.65625-2.8281 0.65625-1.8438 0-3.25-0.5625-4.2188-1.6875-0.96094-1.1328-1.4375-2.7734-1.4375-4.9219z"/>
  </symbol>
  <symbol id="n" overflow="visible">
   <path d="m18.484-9.7188v9.7188h-5.125v-7.4375c0-1.375-0.03125-2.3203-0.09375-2.8438-0.0625-0.51953-0.16797-0.90625-0.3125-1.1562-0.19922-0.33203-0.46875-0.58594-0.8125-0.76562-0.34375-0.1875-0.73438-0.28125-1.1719-0.28125-1.0625 0-1.9023 0.41406-2.5156 1.2344-0.60547 0.8125-0.90625 1.9492-0.90625 3.4062v7.8438h-5.0938v-15.953h5.0938v2.3281c0.76953-0.92578 1.5859-1.6094 2.4531-2.0469 0.86328-0.44531 1.8164-0.67188 2.8594-0.67188 1.8438 0 3.2383 0.57031 4.1875 1.7031 0.95703 1.125 1.4375 2.7656 1.4375 4.9219z"/>
  </symbol>
  <symbol id="m" overflow="visible">
   <path d="m2.6719-21.266h9.1094c2.707 0 4.7852 0.60547 6.2344 1.8125 1.4453 1.1992 2.1719 2.9062 2.1719 5.125 0 2.2305-0.72656 3.9492-2.1719 5.1562-1.4492 1.1992-3.5273 1.7969-6.2344 1.7969h-3.625v7.375h-5.4844zm5.4844 3.9688v5.9375h3.0469c1.0625 0 1.8789-0.25391 2.4531-0.76562 0.58203-0.51953 0.875-1.2539 0.875-2.2031 0-0.94531-0.29297-1.6758-0.875-2.1875-0.57422-0.51953-1.3906-0.78125-2.4531-0.78125z"/>
  </symbol>
  <symbol id="l" overflow="visible">
   <path d="m2.4531-15.953h5.0938v15.672c0 2.1328-0.51562 3.7656-1.5469 4.8906-1.0234 1.125-2.5078 1.6875-4.4531 1.6875h-2.5156v-3.3438h0.89062c0.96875 0 1.6289-0.21875 1.9844-0.65625 0.36328-0.4375 0.54688-1.2969 0.54688-2.5781zm0-6.2031h5.0938v4.1562h-5.0938z"/>
  </symbol>
  <symbol id="k" overflow="visible">
   <path d="m15.344-15.453v4.1562c-0.69922-0.46875-1.3984-0.81641-2.0938-1.0469-0.69922-0.22656-1.4219-0.34375-2.1719-0.34375-1.4297 0-2.5391 0.41797-3.3281 1.25-0.79297 0.82422-1.1875 1.9805-1.1875 3.4688 0 1.5 0.39453 2.668 1.1875 3.5 0.78906 0.82422 1.8984 1.2344 3.3281 1.2344 0.80078 0 1.5547-0.11719 2.2656-0.35938 0.71875-0.23828 1.3828-0.58594 2-1.0469v4.1719c-0.80469 0.29297-1.6172 0.50781-2.4375 0.65625-0.8125 0.14453-1.6367 0.21875-2.4688 0.21875-2.875 0-5.125-0.73438-6.75-2.2031-1.625-1.4766-2.4375-3.5352-2.4375-6.1719 0-2.625 0.8125-4.6758 2.4375-6.1562 1.625-1.4766 3.875-2.2188 6.75-2.2188 0.83203 0 1.6562 0.078125 2.4688 0.23438 0.8125 0.14844 1.625 0.36719 2.4375 0.65625z"/>
  </symbol>
 </defs>
 <g>
  <path d="m165.71 266.92c-11.59 7.4414-18.836 20.383-18.836 34.305 0 19.035 13.051 35.145 31.148 39.508 16.504 41.586 48.43 75.785 88.695 95.023 1.9062 20.754 19.414 37.066 40.66 37.066 14.512 0 27.625-7.5781 34.938-19.75 0.28125 0.003906 0.56641 0.011719 0.84766 0.011719 45.344 0 88.195-16.941 121.23-47.809 2.793 0.61719 5.543 0.92578 8.3086 0.92578 22.512 0 40.832-18.316 40.832-40.828 0-7.6367-2.2383-15.16-6.3867-21.684 9.1523-21.852 13.785-44.828 13.785-68.383 0-27.754-6.5742-55.27-19.074-80.016 7.4141-7.5664 11.672-17.781 11.672-28.555 0-22.512-18.316-40.832-40.832-40.832-8.3398 0-16.285 2.4922-23.02 7.1172-30.625-22.938-68.176-35.488-106.52-35.488-23.023 0-45.484 4.4336-66.887 13.188-7.5781-10.473-19.797-16.895-33.051-16.895-22.512 0-40.828 18.316-40.828 40.828 0 8.3359 2.6289 16.48 7.3984 23.285-26.703 30.312-42.199 68.562-44.082 108.98zm61.742-115.19c-4.8711-4.5078-7.5547-10.57-7.5547-17.062 0-12.863 10.465-23.328 23.328-23.328 9.2617 0 17.652 5.5078 21.367 14.023l3.5703 8.1914 8.1133-3.7383c21.262-9.8008 43.762-14.77 66.887-14.77 36.75 0 72.672 12.785 101.16 36.008l6.1758 5.0352 5.5898-5.6836c4.4336-4.5039 10.332-6.9883 16.613-6.9883 12.867 0 23.332 10.465 23.332 23.332 0 7.6719-3.7969 14.859-10.156 19.227l-6.5625 4.5078 3.8789 6.9609c13.242 23.754 20.242 50.68 20.242 77.871 0 22.75-4.8086 44.922-14.281 65.883l-2.2734 5.0273 3.5586 4.2188c2.5547 3.0273 5.5938 8.0742 5.5938 14.938 0 12.863-10.465 23.328-23.332 23.328-2.4805 0-5.0273-0.47656-7.7891-1.4648l-5.1875-1.8477-3.9141 3.875c-30.215 29.879-70.227 46.328-112.66 46.328-0.98438 0-1.9492-0.074218-2.918-0.14062-0.95703-0.0625-1.9141-0.12891-2.8828-0.15625l-6.0977-0.19922-2.293 5.6523c-3.5938 8.8594-12.07 14.582-21.59 14.582-12.863 0-23.328-10.465-23.316-23.16 0.070313-0.49609 0.12891-0.99219 0.16406-1.5039l0.36328-6.0859-5.5898-2.4453c-39.934-17.484-71.398-51.07-86.34-92.156l-1.8711-5.1523-5.4531-0.55859c-11.945-1.2266-20.953-11.137-20.953-23.047 0-9.0078 5.3359-17.297 13.59-21.121l4.9688-2.3047 0.097656-5.4727c0.74609-40.531 16.648-78.926 44.77-108.11l6.1953-6.4297z"/>
  <path d="m390.45 207.15c17.746 0 32.176-14.438 32.176-32.184 0-17.738-14.438-32.172-32.176-32.172s-32.176 14.434-32.176 32.172c0 17.746 14.434 32.184 32.176 32.184zm0-46.859c8.0898 0 14.676 6.5781 14.676 14.672 0 8.0977-6.5859 14.684-14.676 14.684s-14.676-6.5859-14.676-14.684c0-8.0859 6.582-14.672 14.676-14.672z"/>
  <path d="m577.57 257.97c-16.047 0-29.102 13.051-29.102 29.098 0 16.047 13.055 29.098 29.102 29.098 16.043 0 29.098-13.055 29.098-29.098 0-16.043-13.051-29.098-29.098-29.098zm0 40.695c-6.3984 0-11.602-5.2031-11.602-11.598 0-6.3945 5.2109-11.598 11.602-11.598 6.3945 0 11.598 5.2031 11.598 11.598 0 6.3945-5.2031 11.598-11.598 11.598z"/>
  <path d="m404.72 97.027c15.57 0 28.238-12.664 28.238-28.227 0-15.57-12.664-28.238-28.238-28.238-15.57 0-28.234 12.672-28.234 28.238 0 15.562 12.664 28.227 28.234 28.227zm0-38.969c5.9219 0 10.738 4.8164 10.738 10.738 0 5.9141-4.8164 10.727-10.738 10.727s-10.734-4.8125-10.734-10.727c0-5.918 4.8203-10.738 10.734-10.738z"/>
  <path d="m256.91 462.97c-15.57 0-28.234 12.664-28.234 28.238s12.664 28.238 28.234 28.238c15.57 0 28.238-12.672 28.238-28.238 0.003906-15.57-12.668-28.238-28.238-28.238zm0 38.977c-5.9219 0-10.734-4.8164-10.734-10.738s4.8164-10.738 10.734-10.738c5.9219 0 10.738 4.8164 10.738 10.738 0.003906 5.9219-4.8164 10.738-10.738 10.738z"/>
  <path d="m150.26 179.78c15.57 0 28.238-12.664 28.238-28.227 0-15.57-12.664-28.238-28.238-28.238-15.57 0-28.234 12.672-28.234 28.238-0.003906 15.562 12.664 28.227 28.234 28.227zm0-38.973c5.9219 0 10.738 4.8164 10.738 10.738 0 5.9141-4.8164 10.727-10.738 10.727s-10.734-4.8125-10.734-10.727c-0.003906-5.918 4.8125-10.738 10.734-10.738z"/>
  <path d="m453.82 325.43c21.152 0 38.359-17.207 38.359-38.359 0-21.152-17.207-38.359-38.359-38.359-21.152 0-38.359 17.207-38.359 38.359 0 21.152 17.211 38.359 38.359 38.359zm0-59.219c11.504 0 20.859 9.3555 20.859 20.859 0 11.504-9.3555 20.859-20.859 20.859-11.504 0-20.859-9.3555-20.859-20.859 0-11.504 9.3633-20.859 20.859-20.859z"/>
  <path d="m311.13 288.25c6.6094 7.1758 15.609 11.348 25.359 11.75 0.51172 0.015625 1.0195 0.027344 1.5352 0.027344 9.1875 0 17.902-3.4023 24.691-9.6602 7.1758-6.6094 11.348-15.617 11.75-25.359 0.40234-9.7422-3.0156-19.062-9.625-26.238l-12.867 11.859c3.4414 3.7344 5.2227 8.5859 5.0117 13.656-0.21094 5.0742-2.3867 9.7656-6.1211 13.207-3.7344 3.4492-8.5742 5.2383-13.656 5.0117-5.0742-0.21094-9.7656-2.3789-13.199-6.1133z"/>
  <path d="m122.54 402.95c9.1875 0 17.91-3.4023 24.699-9.6602 14.805-13.645 15.754-36.785 2.1133-51.59l-12.867 11.852c7.0977 7.7109 6.6016 19.762-1.1016 26.867-3.7344 3.4414-8.5508 5.2383-13.656 5.0117-5.0742-0.21094-9.7578-2.3789-13.199-6.1133l-12.875 11.852c6.6094 7.1758 15.617 11.348 25.359 11.75 0.50781 0.019531 1.0156 0.03125 1.5273 0.03125z"/>
  <path d="m277.85 335.45c-9.3672-3.6094-19.582-3.3555-28.766 0.72266-9.1758 4.0703-16.223 11.473-19.828 20.848l16.332 6.2891c1.9297-5.0039 5.6914-8.9648 10.598-11.141s10.359-2.3086 15.371-0.38672c10.336 3.9844 15.512 15.629 11.531 25.965l16.332 6.2891c7.4492-19.34-2.2266-41.133-21.57-48.586z"/>
  <path d="m297.86 177.79c7.8477 3.0234 11.773 11.859 8.75 19.691l16.332 6.2891c6.4883-16.84-1.9414-35.824-18.797-42.32-16.848-6.4766-35.828 1.9609-42.309 18.801l16.332 6.2891c3.0195-7.8398 11.863-11.766 19.691-8.75z"/>
  <path d="m506.77 474.86c6.4883-16.84-1.9414-35.828-18.797-42.32-16.848-6.4688-35.836 1.9609-42.309 18.801l16.332 6.2891c3.0234-7.8477 11.863-11.777 19.691-8.75 7.8477 3.0234 11.773 11.859 8.75 19.699z"/>
  <path d="m380.93 338.69c-17.77 0-32.23 14.461-32.23 32.23 0 17.762 14.461 32.219 32.23 32.219 17.77 0 32.223-14.453 32.223-32.219 0.003906-17.773-14.449-32.23-32.223-32.23zm0 46.949c-8.1211 0-14.73-6.6016-14.73-14.719 0-8.1211 6.6094-14.73 14.73-14.73 8.1211 0 14.723 6.6094 14.723 14.73 0.003906 8.1133-6.6055 14.719-14.723 14.719z"/>
  <path d="m204.3 243.24c0 21.305 17.336 38.641 38.641 38.641 21.305 0 38.641-17.336 38.641-38.641 0-21.305-17.336-38.641-38.641-38.641-21.305 0-38.641 17.336-38.641 38.641zm38.641-21.141c11.656 0 21.141 9.4844 21.141 21.141s-9.4844 21.141-21.141 21.141-21.141-9.4844-21.141-21.141 9.4844-21.141 21.141-21.141z"/>
  <use x="70" y="647.5" xlink:href="#v"/>
  <use x="91.40625" y="647.5" xlink:href="#b"/>
  <use x="105.789062" y="647.5" xlink:href="#a"/>
  <use x="125.570312" y="647.5" xlink:href="#e"/>
  <use x="145.253906" y="647.5" xlink:href="#d"/>
  <use x="159.195312" y="647.5" xlink:href="#a"/>
  <use x="178.976562" y="647.5" xlink:href="#j"/>
  <use x="210.007812" y="647.5" xlink:href="#i"/>
  <use x="230.886719" y="647.5" xlink:href="#h"/>
  <use x="260.054688" y="647.5" xlink:href="#f"/>
  <use x="272.742188" y="647.5" xlink:href="#e"/>
  <use x="292.425781" y="647.5" xlink:href="#u"/>
  <use x="302.421875" y="647.5" xlink:href="#g"/>
  <use x="319.78125" y="647.5" xlink:href="#e"/>
  <use x="339.464844" y="647.5" xlink:href="#t"/>
  <use x="349.460938" y="647.5" xlink:href="#c"/>
  <use x="369.5" y="647.5" xlink:href="#s"/>
  <use x="388.511719" y="647.5" xlink:href="#a"/>
  <use x="408.292969" y="647.5" xlink:href="#b"/>
  <use x="422.675781" y="647.5" xlink:href="#g"/>
  <use x="70" y="676.667969" xlink:href="#f"/>
  <use x="82.6875" y="676.667969" xlink:href="#b"/>
  <use x="97.074219" y="676.667969" xlink:href="#c"/>
  <use x="117.109375" y="676.667969" xlink:href="#r"/>
  <use x="157.65625" y="676.667969" xlink:href="#d"/>
  <use x="171.597656" y="676.667969" xlink:href="#q"/>
  <use x="192.363281" y="676.667969" xlink:href="#a"/>
  <use x="222.300781" y="676.667969" xlink:href="#p"/>
  <use x="246.710938" y="676.667969" xlink:href="#c"/>
  <use x="266.746094" y="676.667969" xlink:href="#o"/>
  <use x="287.511719" y="676.667969" xlink:href="#n"/>
  <use x="318.429688" y="676.667969" xlink:href="#m"/>
  <use x="339.804688" y="676.667969" xlink:href="#b"/>
  <use x="354.191406" y="676.667969" xlink:href="#c"/>
  <use x="374.226562" y="676.667969" xlink:href="#l"/>
  <use x="384.226562" y="676.667969" xlink:href="#a"/>
  <use x="404.007812" y="676.667969" xlink:href="#k"/>
  <use x="421.296875" y="676.667969" xlink:href="#d"/>
 </g>
</svg>
